<svg width="29" height="27" viewBox="0 0 29 27" fill="none" xmlns="http://www.w3.org/2000/svg">
<path d="M24.1561 10.9362L15.3239 3.2686C14.9983 2.98401 14.5729 2.82617 14.1316 2.82617C13.6902 2.82617 13.2648 2.98401 12.9392 3.2686L4.10697 10.9362C3.92613 11.0942 3.78171 11.2865 3.68287 11.5007C3.58403 11.715 3.53295 11.9466 3.53287 12.1807V21.8944C3.52569 22.3198 3.68292 22.7329 3.97449 23.0545C4.13997 23.2343 4.34382 23.3781 4.57233 23.4764C4.80085 23.5746 5.04874 23.625 5.29932 23.6241H10.5987C10.8329 23.6241 11.0576 23.5352 11.2232 23.3769C11.3888 23.2187 11.4819 23.0041 11.4819 22.7803V17.7178C11.4819 17.494 11.5749 17.2794 11.7406 17.1212C11.9062 16.963 12.1309 16.8741 12.3651 16.8741H15.898C16.1322 16.8741 16.3569 16.963 16.5225 17.1212C16.6882 17.2794 16.7812 17.494 16.7812 17.7178V22.7803C16.7812 23.0041 16.8743 23.2187 17.0399 23.3769C17.2056 23.5352 17.4302 23.6241 17.6645 23.6241H22.9638C23.2568 23.6265 23.5456 23.5576 23.8029 23.4237C24.0828 23.278 24.3166 23.0631 24.4798 22.8015C24.643 22.5399 24.7295 22.2411 24.7302 21.9366V12.1807C24.7302 11.9466 24.6791 11.715 24.5802 11.5007C24.4814 11.2865 24.337 11.0942 24.1561 10.9362Z" fill="#16D7C0"/>
</svg>
