<svg width="24" height="24" viewBox="0 0 24 24" fill="none" xmlns="http://www.w3.org/2000/svg">
<path d="M24 12C24 18.6274 18.6274 24 12 24C5.37255 24 -3.05176e-05 18.6274 -3.05176e-05 12C-3.05176e-05 5.37258 5.37255 0 12 0C18.6274 0 24 5.37258 24 12Z" fill="#CFF0E6"/>
<path d="M15.3686 7.36863C15.3686 9.22908 13.8604 10.7373 11.9999 10.7373C10.1395 10.7373 8.63132 9.22908 8.63132 7.36863C8.63132 5.50819 10.1395 4 11.9999 4C13.8604 4 15.3686 5.50819 15.3686 7.36863Z" fill="#36DDAB"/>
<path fill-rule="evenodd" clip-rule="evenodd" d="M5.50107 17.0505C5.50107 19.5345 8.87771 19.8388 12 19.8388C15.1224 19.8388 18.499 19.5345 18.499 17.0505C18.499 14.5664 15.8426 12.5527 12 12.5527C8.15743 12.5527 5.50107 14.5664 5.50107 17.0505Z" fill="#36DDAB"/>
</svg>
