<svg width="25" height="25" viewBox="0 0 25 25" fill="none" xmlns="http://www.w3.org/2000/svg">
<path fill-rule="evenodd" clip-rule="evenodd" d="M17.652 6.31101C17.5436 6.29088 17.3418 6.28174 17.0264 6.33946C15.5154 6.61604 12.9857 8.10963 10.5169 10.7176C8.75828 12.5753 7.52048 14.4852 6.90679 16.0191C6.59798 16.791 6.48105 17.3836 6.47908 17.7802C6.47805 17.986 6.50608 18.0918 6.52405 18.1374C6.57057 18.1529 6.67773 18.1751 6.88323 18.1628C7.27908 18.1391 7.86439 17.9898 8.61819 17.6392C10.1162 16.9424 11.9554 15.6018 13.714 13.7441C15.4726 11.8864 16.7104 9.97647 17.3241 8.44258C17.6329 7.6707 17.7498 7.0781 17.7518 6.68154C17.7528 6.47529 17.7247 6.3695 17.7067 6.32404C17.6941 6.32014 17.6763 6.31551 17.652 6.31101ZM17.7318 6.33399C17.7317 6.33405 17.7305 6.33344 17.7282 6.33202C17.7308 6.33322 17.7319 6.33393 17.7318 6.33399ZM17.6972 6.3032C17.6935 6.29856 17.692 6.29585 17.6922 6.29566C17.6924 6.29546 17.6943 6.29778 17.6972 6.3032ZM6.49466 18.1244C6.49485 18.1242 6.49763 18.1255 6.50246 18.129C6.4969 18.1263 6.49448 18.1246 6.49466 18.1244ZM6.53366 18.1585C6.53736 18.1631 6.53884 18.1659 6.53864 18.166C6.53845 18.1662 6.5366 18.1639 6.53366 18.1585ZM16.4143 2.99564C17.5774 2.78276 18.9941 2.85175 20.0489 3.85022C20.893 4.64931 21.156 5.72606 21.1511 6.69848C21.1463 7.66685 20.883 8.69866 20.4802 9.70531C19.6708 11.7285 18.1603 13.992 16.1827 16.0811C14.2051 18.1701 12.0277 19.8024 10.0519 20.7214C9.06885 21.1787 8.05302 21.4982 7.08637 21.5561C6.11568 21.6142 5.02614 21.4106 4.182 20.6115C3.33787 19.8124 3.07489 18.7356 3.07974 17.7632C3.08456 16.7949 3.34789 15.763 3.75064 14.7564C4.56007 12.7332 6.07058 10.4697 8.04817 8.38063C10.7224 5.55567 13.8671 3.46189 16.4143 2.99564Z" fill="#16D7C0"/>
<path d="M6.6947 18.3912C9.98369 21.5047 15.1739 21.3624 18.2874 18.0734C21.4009 14.7844 21.2586 9.5942 17.9696 6.48072C14.6806 3.36724 9.4904 3.50951 6.37692 6.7985C3.26344 10.0875 3.40571 15.2777 6.6947 18.3912Z" fill="url(#paint0_radial_512_52)"/>
<g filter="url(#filter0_d_512_52)">
<path fill-rule="evenodd" clip-rule="evenodd" d="M17.6459 3.91599C18.2913 3.23428 19.3671 3.20479 20.0488 3.85012C20.8929 4.64921 21.1559 5.72596 21.151 6.69838C21.1462 7.66675 20.8829 8.69856 20.4801 9.7052C19.6707 11.7284 18.1602 13.9919 16.1826 16.081C14.205 18.17 12.0276 19.8023 10.0518 20.7213C9.06877 21.1786 8.05293 21.4981 7.08628 21.556C6.11559 21.6141 5.02605 21.4105 4.18191 20.6114C3.50021 19.9661 3.47072 18.8903 4.11605 18.2086C4.75726 17.5312 5.82344 17.4978 6.50577 18.1304C6.5379 18.1445 6.64384 18.177 6.88314 18.1627C7.27899 18.139 7.8643 17.9897 8.6181 17.6391C10.1161 16.9423 11.9553 15.6017 13.7139 13.744C15.4725 11.8863 16.7103 9.97637 17.324 8.44248C17.6328 7.6706 17.7497 7.07799 17.7517 6.68144C17.7529 6.44172 17.7147 6.33771 17.6988 6.3064C17.0298 5.65976 17.0047 4.59334 17.6459 3.91599ZM17.6921 6.29556C17.6923 6.29536 17.6942 6.29768 17.6971 6.30309C17.6934 6.29846 17.6919 6.29575 17.6921 6.29556ZM6.49458 18.1243C6.49476 18.1241 6.49754 18.1254 6.50237 18.1289C6.49681 18.1262 6.49439 18.1245 6.49458 18.1243Z" fill="url(#paint1_linear_512_52)"/>
</g>
<defs>
<filter id="filter0_d_512_52" x="2.9507" y="2.48477" width="19.5004" height="20.1807" filterUnits="userSpaceOnUse" color-interpolation-filters="sRGB">
<feFlood flood-opacity="0" result="BackgroundImageFix"/>
<feColorMatrix in="SourceAlpha" type="matrix" values="0 0 0 0 0 0 0 0 0 0 0 0 0 0 0 0 0 0 127 0" result="hardAlpha"/>
<feOffset dx="0.3" dy="0.1"/>
<feGaussianBlur stdDeviation="0.5"/>
<feComposite in2="hardAlpha" operator="out"/>
<feColorMatrix type="matrix" values="0 0 0 0 0 0 0 0 0 0 0 0 0 0 0 0 0 0 0.1 0"/>
<feBlend mode="normal" in2="BackgroundImageFix" result="effect1_dropShadow_512_52"/>
<feBlend mode="normal" in="SourceGraphic" in2="effect1_dropShadow_512_52" result="shape"/>
</filter>
<radialGradient id="paint0_radial_512_52" cx="0" cy="0" r="1" gradientUnits="userSpaceOnUse" gradientTransform="translate(11.5 11.5) rotate(39.8056) scale(11.7154 10.0758)">
<stop offset="0.208333" stop-color="#16D7BF"/>
<stop offset="0.609375" stop-color="#11CDB6"/>
<stop offset="0.765625" stop-color="#1DC7B1"/>
<stop offset="0.927083" stop-color="#11CDB6"/>
<stop offset="1" stop-color="#1DBFAB"/>
<stop offset="1" stop-color="#11BCA7"/>
</radialGradient>
<linearGradient id="paint1_linear_512_52" x1="21" y1="5.99992" x2="6.99997" y2="21.9999" gradientUnits="userSpaceOnUse">
<stop stop-color="#16D7BF"/>
<stop offset="0.192708" stop-color="#17D8C0"/>
<stop offset="0.515625" stop-color="#17D8C0"/>
<stop offset="0.802083" stop-color="#17D8C0"/>
<stop offset="1" stop-color="#16D7BF"/>
</linearGradient>
</defs>
</svg>
