<svg width="30" height="18" viewBox="0 0 30 18" fill="none" xmlns="http://www.w3.org/2000/svg">
<path d="M11.6488 15C12.698 15 13.5485 14.1046 13.5485 13C13.5485 11.8954 12.698 11 11.6488 11C10.5997 11 9.74916 11.8954 9.74916 13C9.74916 14.1046 10.5997 15 11.6488 15Z" stroke="#16D7C0" stroke-width="1.5" stroke-miterlimit="1.5" stroke-linecap="round" stroke-linejoin="round"/>
<path d="M21.1473 15C22.1965 15 23.047 14.1046 23.047 13C23.047 11.8954 22.1965 11 21.1473 11C20.0981 11 19.2476 11.8954 19.2476 13C19.2476 14.1046 20.0981 15 21.1473 15Z" stroke="#16D7C0" stroke-width="1.5" stroke-miterlimit="1.5" stroke-linecap="round" stroke-linejoin="round"/>
<path d="M13.5961 13H18.2978V2.6C18.2978 2.26863 18.0427 2 17.7279 2H5" stroke="#16D7C0" stroke-width="1.5" stroke-linecap="round"/>
<path d="M9.41682 13H7.46964C7.15489 13 6.89973 12.7314 6.89973 12.4V7.5" stroke="#16D7C0" stroke-width="1.5" stroke-linecap="round"/>
<path d="M5.9498 5H9.74917" stroke="#16D7C0" stroke-width="1.5" stroke-linecap="round" stroke-linejoin="round"/>
<path d="M18.2978 5H23.6265C23.8517 5 24.0559 5.13964 24.1473 5.35632L25.8474 9.3836C25.8798 9.4604 25.8966 9.5434 25.8966 9.6273V12.4C25.8966 12.7314 25.6414 13 25.3267 13H23.5219" stroke="#16D7C0" stroke-width="1.5" stroke-linecap="round"/>
<path d="M18.2978 13H19.2476" stroke="#16D7C0" stroke-width="1.5" stroke-linecap="round"/>
</svg>
