<svg width="102" height="16" viewBox="0 0 102 16" fill="none" xmlns="http://www.w3.org/2000/svg">
<path d="M11.1015 10.8066C11.1015 12.4125 10.6248 13.6648 9.67125 14.5635C8.73288 15.4622 7.43128 15.9116 5.76643 15.9116C4.6788 15.9116 3.50127 15.6132 2.44588 15.0193C1.50392 14.4893 0.663803 13.7076 0 12.9503L1.65728 10.4751C2.20214 11.035 3.33727 12.0147 3.92754 12.3094C4.53293 12.6041 5.08536 12.7514 5.58481 12.7514C6.19021 12.7514 6.65939 12.5746 6.99236 12.221C7.32533 11.8674 7.49182 11.3665 7.49182 10.7182V3.24862V0.287293H11.1015V10.8066Z" fill="#A5B9B6"/>
<path d="M16.7752 9.37017C16.7752 10.4751 17.093 11.3517 17.7287 12C18.3795 12.6335 19.2422 12.9503 20.3167 12.9503C21.361 12.9503 22.1935 12.6335 22.814 12C23.4345 11.3665 23.7448 10.4899 23.7448 9.37017V0.287293H27.3318V9.37017C27.3318 10.7256 27.0442 11.9042 26.4691 12.9061C25.9091 13.8932 25.0994 14.6593 24.0399 15.2044C22.9805 15.7348 21.7319 16 20.294 16C18.8562 16 17.6 15.7348 16.5254 15.2044C16.2944 15.0872 16.075 14.9598 15.867 14.8222C15.1077 14.3197 14.5024 13.681 14.0509 12.9061C13.4757 11.9042 13.1882 10.7256 13.1882 9.37017V0.287293H16.7752V9.37017Z" fill="#A5B9B6"/>
<path d="M40.1684 4.59669C39.3511 4.1105 38.4809 3.72744 37.5576 3.44751C36.6495 3.15286 35.8701 3.00553 35.2193 3.00553C34.5987 3.00553 34.1069 3.11602 33.7436 3.33702C33.3804 3.55801 33.1988 3.88214 33.1988 4.30939C33.1988 4.85451 33.4561 5.2744 33.9706 5.56906C34.5004 5.84899 35.3101 6.14365 36.3998 6.45304C37.4895 6.76243 38.3825 7.07182 39.0787 7.38122C39.79 7.69061 40.3954 8.1547 40.8949 8.77348C41.3943 9.39227 41.6441 10.2099 41.6441 11.2265C41.6441 12.2136 41.3716 13.0681 40.8268 13.7901C40.2971 14.4972 39.563 15.035 38.6246 15.4033C37.6863 15.7716 36.6193 15.9558 35.4236 15.9558C34.1371 15.9558 32.8734 15.7348 31.6323 15.2928C30.3912 14.8508 29.3166 14.2468 28.4085 13.4807L29.8388 10.6298C30.641 11.337 31.5642 11.9042 32.6085 12.3315C33.6528 12.7587 34.6063 12.9724 35.469 12.9724C36.2106 12.9724 36.7857 12.8398 37.1944 12.5746C37.6182 12.3094 37.8301 11.9263 37.8301 11.4254C37.8301 11.0276 37.6863 10.7035 37.3987 10.453C37.1263 10.1878 36.7706 9.97422 36.3317 9.81215C35.9079 9.65009 35.3177 9.46593 34.5609 9.25967C33.4712 8.96501 32.5782 8.67035 31.882 8.37569C31.2009 8.08103 30.6107 7.63168 30.1112 7.02763C29.6118 6.42357 29.3621 5.62063 29.3621 4.61879C29.3621 3.69061 29.6193 2.8803 30.1339 2.18785C30.6485 1.48066 31.3674 0.94291 32.2907 0.574586C33.2139 0.191529 34.2885 0 35.5144 0C36.6041 0 37.6787 0.154696 38.7382 0.464089C39.7976 0.773482 40.736 1.186 41.5533 1.70166L40.1684 4.59669Z" fill="#A5B9B6"/>
<path d="M43.1587 0.287293H56.4397V3.24862H51.5813V15.7569H47.9944V3.24862H43.1587V0.287293Z" fill="#A5B9B6"/>
<path d="M68.1397 0.287293C70.1678 0.287293 71.7342 0.758748 72.8391 1.70166C73.9439 2.62983 74.4964 3.94844 74.4964 5.65746C74.4964 7.45488 73.9364 8.85451 72.8164 9.85635C71.7115 10.8435 70.1526 11.337 68.1397 11.337H64.984V15.7569H61.3971V0.287293H68.1397ZM67.9581 8.41989C68.9721 8.41989 69.744 8.1989 70.2737 7.75691C70.8186 7.30019 71.091 6.6372 71.091 5.76796C71.091 4.91344 70.8186 4.27256 70.2737 3.8453C69.744 3.40332 68.9721 3.18232 67.9581 3.18232H64.984V8.41989H67.9581Z" fill="#A5B9B6"/>
<path d="M86.5384 15.7569L85.2898 12.7514H77.9342L76.6856 15.7569H72.9851L79.8866 0.287293H83.5871L90.3751 15.7569H86.5384ZM79.1147 9.94475H84.1319L81.6347 3.9337L79.1147 9.94475Z" fill="#A5B9B6"/>
<path d="M102 0.287293L96.2109 10.7624V15.7569H92.6239V10.8508L86.744 0.287293H90.3537L94.4174 7.22652L98.3903 0.287293H102Z" fill="#A5B9B6"/>
</svg>
